<svg width="234" height="64" viewBox="0 0 234 64" fill="none" xmlns="http://www.w3.org/2000/svg">
<g clip-path="url(#clip0_118_8)">
<path d="M-0.500061 233.7C128.458 233.7 233 129.159 233 0.200027C233 -128.758 128.458 -233.3 -0.500061 -233.3C-129.459 -233.3 -234 -128.758 -234 0.200027C-234 129.159 -129.459 233.7 -0.500061 233.7Z" fill="url(#paint0_radial_118_8)" fill-opacity="0.1"/>
<path d="M233.7 -3.2L4.39999 -0.399994L232.5 -28V-28.5L4.89999 -1L229.2 -50.7L229 -51.2L4.8 -1.5L223.6 -72.8L223.4 -73.3L4.60001 -2L215.8 -94.3L215.6 -94.7L4.39999 -2.39999L206 -114.8L205.7 -115.2L4.2 -2.89999L194.2 -134.2L193.9 -134.7L3.89999 -3.3L180.5 -152.4L180.2 -152.8L3.60001 -3.60001L165 -169L164.6 -169.3L3.3 -4L148 -184L147.6 -184.3L2.89999 -4.3L129.5 -197.3L129.1 -197.6L2.5 -4.60001L109.8 -208.7L109.4 -208.9L2 -4.8L89.1 -218L88.6 -218.2L1.60001 -5L67.5 -225.3L67 -225.5L1.10001 -5.10001L45.2 -230.4L44.8 -230.5L0.600006 -5.2L22.6 -233.3H22.1L0.100006 -4.7L-2.8 -234H-3.2L-0.399994 -4.7L-28 -232.8H-28.5L-1 -5.10001L-50.7 -229.4L-51.2 -229.3L-1.5 -5.10001L-72.8 -223.8L-73.3 -223.7L-2 -4.89999L-94.3 -216.1L-94.7 -215.9L-2.39999 -4.7L-114.8 -206.3L-115.2 -206L-2.89999 -4.5L-134.2 -194.4L-134.7 -194.2L-3.3 -4.2L-152.4 -180.8L-152.8 -180.4L-3.7 -3.89999L-169 -165.3L-169.3 -164.9L-4 -3.60001L-184 -148.3L-184.3 -147.9L-4.3 -3.2L-197.3 -129.8L-197.6 -129.4L-4.60001 -2.8L-208.7 -110.1L-208.9 -109.7L-4.8 -2.3L-218 -89.4L-218.2 -88.9L-5 -1.8L-225.3 -67.8L-225.5 -67.3L-5.10001 -1.39999L-230.4 -45.5L-230.5 -45L-5.2 -0.899994L-233.3 -22.8V-22.3L-4.7 -0.300003L-234 2.5V3L-4.7 0.199997L-232.8 27.8V28.3L-5.10001 0.699997L-229.4 50.4L-229.3 50.9L-5.10001 1.2L-223.8 72.5L-223.7 73L-4.89999 1.7L-216.1 94L-215.9 94.4L-4.7 2.10001L-206.3 114.5L-206 115L-4.5 2.60001L-194.4 134L-194.2 134.4L-4.2 3L-180.8 152.1L-180.4 152.5L-3.89999 3.39999L-165.3 168.7L-164.9 169.1L-3.60001 3.7L-148.3 183.8L-147.9 184.1L-3.2 4L-129.8 197L-129.4 197.3L-2.8 4.3L-110.1 208.4L-109.7 208.6L-2.3 4.5L-89.4 217.8L-88.9 217.9L-1.8 4.7L-67.8 225L-67.3 225.2L-1.39999 4.8L-45.5 230.1L-45 230.2L-0.899994 4.89999L-22.8 233L-22.3 233.1L-0.300003 4.39999L2.5 233.7H3L0.199997 4.39999L27.8 232.5H28.3L0.699997 4.89999L50.4 229.2L50.9 229L1.2 4.8L72.5 223.6L73 223.4L1.7 4.60001L94 215.8L94.4 215.6L2.10001 4.5L114.5 206L115 205.7L2.60001 4.2L134 194.2L134.4 193.9L3 3.89999L152.1 180.5L152.5 180.2L3.39999 3.60001L168.7 165L169.1 164.6L3.7 3.3L183.8 148L184.1 147.6L4 2.89999L197 129.5L197.3 129.1L4.3 2.5L208.4 109.8L208.6 109.4L4.5 2L217.8 89.1L217.9 88.6L4.7 1.60001L225 67.5L225.2 67L4.8 1.10001L230.1 45.2L230.2 44.8L4.89999 0.600006L233 22.6L233.1 22.1L4.39999 0L233.7 -2.8V-3.2Z" fill="white" fill-opacity="0.3"/>
</g>
<defs>
<radialGradient id="paint0_radial_118_8" cx="0" cy="0" r="1" gradientUnits="userSpaceOnUse" gradientTransform="translate(-0.500063 0.0480077) rotate(0.0373019) scale(233.5)">
<stop stop-color="white"/>
<stop offset="1" stop-color="#EBEBEB" stop-opacity="0"/>
</radialGradient>
<clipPath id="clip0_118_8">
<rect width="234" height="64" fill="white"/>
</clipPath>
</defs>
</svg>
